<svg width="20" height="16" viewBox="0 0 20 16" fill="none" xmlns="http://www.w3.org/2000/svg">
<path d="M17.8881 3.33494C17.2654 2.19119 16.2312 1.32684 14.9951 0.916935C14.2615 0.651241 13.497 0.480521 12.7201 0.408936C12.5308 0.744815 12.3612 1.0914 12.2121 1.44694C10.7009 1.21516 9.16327 1.21516 7.65211 1.44694C7.49688 1.09233 7.32366 0.745877 7.13311 0.408936C6.38111 0.490936 5.64011 0.657936 4.92511 0.905936C3.68058 1.31777 2.64127 2.19101 2.0211 3.34594C0.384257 6.30561 -0.283722 9.70391 0.111105 13.0629C1.61603 14.1814 3.29997 15.0362 5.0911 15.5909C5.59853 15.0975 5.97754 14.4874 6.1951 13.8139C5.6551 13.6119 5.13511 13.3639 4.6381 13.0739C4.5491 12.9519 4.8921 12.7539 5.0021 12.7199C6.57273 13.456 8.28605 13.8376 10.0206 13.8376C11.7552 13.8376 13.4685 13.456 15.0391 12.7199C15.1391 12.7199 15.4921 12.9519 15.4031 13.0739C14.9621 13.4159 13.9791 13.6589 13.8131 13.9019C14.1025 14.5131 14.4743 15.0817 14.9181 15.5919C16.7124 15.0365 18.3996 14.1811 19.9081 13.0619C20.2679 9.68817 19.5615 6.28647 17.8881 3.33494ZM6.6691 10.6999C6.1557 10.6939 5.66557 10.4848 5.30581 10.1185C4.94604 9.75219 4.7459 9.25837 4.7491 8.74494C4.75766 8.23932 4.963 7.75695 5.32151 7.40031C5.68002 7.04367 6.16345 6.84085 6.6691 6.83494C6.92532 6.8361 7.17877 6.88796 7.41486 6.98752C7.65094 7.08708 7.86499 7.23238 8.04467 7.41503C8.22435 7.59769 8.36611 7.81409 8.46178 8.05178C8.55745 8.28947 8.60514 8.54374 8.60211 8.79994C8.59091 9.30604 8.38263 9.78778 8.02161 10.1426C7.66059 10.4975 7.17532 10.6975 6.6691 10.6999ZM13.2941 10.6999C12.7805 10.697 12.289 10.4909 11.9269 10.1266C11.5649 9.76233 11.3618 9.26952 11.3621 8.75594C11.3643 8.50216 11.4165 8.2513 11.5157 8.01769C11.6149 7.78409 11.7591 7.5723 11.9401 7.39443C12.1212 7.21656 12.3355 7.07609 12.5708 6.98103C12.8061 6.88598 13.0578 6.8382 13.3116 6.84044C13.5654 6.84267 13.8162 6.89486 14.0498 6.99404C14.2835 7.09322 14.4952 7.23744 14.6731 7.41847C14.851 7.5995 14.9915 7.81379 15.0865 8.04911C15.1816 8.28442 15.2293 8.53616 15.2271 8.78994C15.2184 9.29677 15.0109 9.77989 14.6493 10.1351C14.2877 10.4904 13.801 10.6893 13.2941 10.6889V10.6999Z" fill="url(#paint0_linear_192_740)"/>
<defs>
<linearGradient id="paint0_linear_192_740" x1="0.000488281" y1="0.408936" x2="20.3122" y2="0.839234" gradientUnits="userSpaceOnUse">
<stop stop-color="#2F1B09"/>
<stop offset="0.443998" stop-color="#FFC581"/>
<stop offset="1" stop-color="#754522"/>
</linearGradient>
</defs>
</svg>
