<svg xmlns="http://www.w3.org/2000/svg" width="1248" height="473" fill="none" viewBox="0 0 1248 473">
  <g clip-path="url(#a)">
    <path fill="url(#b)" d="M771.838 53H1131v-8H771.838v8ZM1157 79v4.218h8V79h-8Zm17.81 35.385C1214.12 140.556 1240 185.256 1240 236h8c0-53.533-27.32-100.683-68.75-128.274l-4.44 6.659ZM1240 236c0 50.744-25.88 95.444-65.19 121.615l4.44 6.659C1220.68 336.683 1248 289.533 1248 236h-8Zm-83 152.782V394h8v-5.218h-8ZM1131 420H771.838v8H1131v-8Zm-379.273 6.333C715.364 450.753 671.602 465 624.5 465v8c48.74 0 94.047-14.748 131.687-40.026l-4.46-6.641ZM624.5 465c-47.102 0-90.864-14.247-127.227-38.667l-4.46 6.641C530.453 458.252 575.76 473 624.5 473v-8Zm-147.338-45H118v8h359.162v-8ZM92 394v-4.568h-8V394h8Zm-18.031-35.869C34.227 332.034 8 287.079 8 236H0c0 53.886 27.68 101.305 69.577 128.818l4.392-6.687ZM8 236c0-51.079 26.227-96.034 65.969-122.131l-4.392-6.687C27.68 134.695 0 182.114 0 236h8ZM92 82.568V79h-8v3.568h8ZM118 53h359.162v-8H118v8Zm379.273-6.333C533.636 22.247 577.398 8 624.5 8V0c-48.74 0-94.047 14.748-131.687 40.026l4.46 6.641ZM624.5 8c47.102 0 90.864 14.247 127.227 38.667l4.46-6.641C718.547 14.748 673.24 0 624.5 0v8ZM477.162 53c7.268 0 14.221-2.378 20.111-6.333l-4.46-6.641C488.094 43.195 482.672 45 477.162 45v8ZM92 389.432c0-13.052-7.578-24.437-18.031-31.301l-4.392 6.687C78.254 370.516 84 379.598 84 389.432h8ZM118 420c-14.359 0-26-11.641-26-26h-8c0 18.778 15.222 34 34 34v-8Zm379.273 6.333c-5.89-3.955-12.843-6.333-20.111-6.333v8c5.51 0 10.932 1.805 15.651 4.974l4.46-6.641ZM771.838 420c-7.268 0-14.221 2.378-20.111 6.333l4.46 6.641c4.719-3.169 10.141-4.974 15.651-4.974v-8Zm402.972-62.385c-10.34 6.883-17.81 18.207-17.81 31.167h8c0-9.766 5.67-18.796 14.25-24.508l-4.44-6.659ZM92 79c0-14.36 11.641-26 26-26v-8c-18.778 0-34 15.222-34 34h8Zm1065 4.218c0 12.96 7.47 24.284 17.81 31.167l4.44-6.659c-8.58-5.712-14.25-14.742-14.25-24.508h-8ZM73.969 113.87C84.423 107.005 92 95.619 92 82.568h-8c0 9.834-5.746 18.916-14.423 24.614l4.392 6.687ZM1131 53c14.36 0 26 11.64 26 26h8c0-18.778-15.22-34-34-34v8Zm26 341c0 14.359-11.64 26-26 26v8c18.78 0 34-15.222 34-34h-8ZM771.838 45c-5.51 0-10.932-1.805-15.651-4.974l-4.46 6.641C757.617 50.622 764.57 53 771.838 53v-8Z"/>
  </g>
  <defs>
    <linearGradient id="b" x1="4" x2="1261.63" y1="4" y2="57.938" gradientUnits="userSpaceOnUse">
      <stop stop-color="#2F1B09"/>
      <stop offset=".444" stop-color="#FFC581"/>
      <stop offset="1" stop-color="#754522"/>
    </linearGradient>
    <clipPath id="a">
      <path fill="#fff" d="M0 0h1248v473H0z"/>
    </clipPath>
  </defs>
</svg>
