<svg width="25" height="25" viewBox="0 0 25 25" fill="none" xmlns="http://www.w3.org/2000/svg">
<path d="M5.03937 11.9529C5.06724 11.9826 5.1062 12 5.14697 12H19.8519H19.8524C19.9339 12 20 11.9337 20 11.8518C20 11.8448 19.9995 11.8371 19.9985 11.8301L19.4233 3.13808C19.4179 3.06036 19.3536 3 19.2762 3H5.72314C5.64548 3 5.58097 3.06036 5.57607 3.13808L5.00041 11.8422C4.99732 11.8829 5.01177 11.9228 5.03937 11.9529ZM5.86093 3.29559H19.1384L19.6948 11.7039H5.30463L5.86093 3.29559Z" fill="#FFE1BD"/>
<path d="M22.9841 20.9452L20.9091 14.9239L20.7991 13.2756C20.7966 13.238 20.7865 13.201 20.7703 13.1673L20.3853 12.383L19.705 2.20983C19.6988 2.11568 19.6469 2.03057 19.5661 1.98092L18.0304 1.04304C17.9841 1.01492 17.9315 1 17.8771 1H6.12261C6.06821 1 6.01505 1.01492 5.96902 1.04304L4.4338 1.98092C4.35282 2.03033 4.30113 2.11568 4.29498 2.20983L3.61488 12.383L3.2299 13.1673C3.21317 13.2013 3.20332 13.238 3.20086 13.2756L3.09083 14.9239L1.01582 20.9452C0.995144 21.0054 0.994651 21.0709 1.01484 21.1311L1.57039 22.8004C1.61002 22.9198 1.72201 23 1.84853 23H22.1519C22.2784 23 22.3904 22.9198 22.4303 22.8004L22.9856 21.1311C23.0053 21.0709 23.0048 21.0056 22.9841 20.9452ZM19.8563 12.6341L20.2184 13.3712L20.3147 14.807H3.68527L3.78127 13.3712L4.14335 12.6341H19.8563ZM3.62965 15.1563H20.3703L22.3375 20.8652H1.6622L3.62965 15.1563ZM4.86924 2.39814L6.20532 1.58205H17.7946L19.1307 2.39814L19.7918 12.2849H4.20834L4.86924 2.39814ZM21.94 22.4184H2.05973L1.65925 21.2142H22.3404L21.94 22.4184Z" fill="#FFE1BD"/>
<path d="M14.8744 18.5991C14.8744 18.5982 14.8744 18.5969 14.8739 18.596L14.6248 16.1438C14.6163 16.0621 14.5418 16 14.4522 16H7.37929H7.37881H4.54691C4.47291 16 4.40716 16.043 4.38314 16.1073L3.0094 19.7896C2.99121 19.8379 2.9997 19.8918 3.03245 19.9334C3.06496 19.9753 3.11737 20 3.17317 20H4.83733H4.83806H4.83854H6.50197H6.50294H6.50342H8.16733H8.16782H8.1683H9.83197H9.83246H9.83294H14.8269C14.8751 20 14.9217 19.9809 14.9547 19.9479C14.9875 19.915 15.0035 19.8704 14.9994 19.8261L14.8744 18.5991ZM8.36992 19.6818L8.52423 18.7726H9.76743L9.67475 19.6818H8.36992ZM6.71814 19.6818L6.93408 18.7726H8.17364L8.01958 19.6818H6.71814ZM5.06661 19.6818L5.34417 18.7726H6.57936L6.36343 19.6818H5.06661ZM4.21282 17.5449H5.35897L5.08141 18.4546H3.87339L4.21282 17.5449ZM5.71878 17.5449H6.87075L6.65482 18.4546H5.44122L5.71878 17.5449ZM7.16214 16.3179L6.94621 17.2272H5.81583L6.09363 16.3179H7.16214ZM8.58974 16.3179L8.43543 17.2272H7.30068L7.51662 16.3179H8.58974ZM10.0171 16.3179L9.92441 17.2272H8.78627L8.94057 16.3179H10.0171ZM11.4435 16.3179L11.4127 17.2272H10.2726L10.365 16.3179H11.4435ZM11.7904 16.3179H12.8691L12.9004 17.2272H11.7596L11.7904 16.3179ZM8.7324 17.5449H9.89214L9.79946 18.4546H8.57809L8.7324 17.5449ZM8.2275 18.4546H7.00929L7.22523 17.5449H8.38181L8.2275 18.4546ZM10.2401 17.5449H11.402L11.3712 18.4546H10.1476L10.2401 17.5449ZM10.1154 18.7726H11.3605L11.3297 19.6818H10.0229L10.1154 18.7726ZM11.707 18.7726H12.9524L12.9832 19.6818H11.6762L11.707 18.7726ZM11.7179 18.4546L11.7487 17.5449H12.9109L12.9417 18.4546H11.7179ZM13.2576 17.5449H14.419L14.5119 18.4546H13.2884L13.2576 17.5449ZM14.387 17.2272H13.2469L13.2161 16.3179H14.2945L14.387 17.2272ZM4.67089 16.3179H5.73382L5.45602 17.2272H4.33146L4.67089 16.3179ZM3.75499 18.7726H4.98436L4.70655 19.6818H3.41555L3.75499 18.7726ZM13.3301 19.6818L13.2993 18.7726H14.5442L14.6366 19.6818H13.3301Z" fill="#FFE1BD"/>
<path d="M21.9851 19.7778L20.48 16.1073C20.4539 16.043 20.3816 16 20.2998 16H17.1905C17.1327 16 17.0786 16.0218 17.0421 16.0592C17.0061 16.0966 16.992 16.1458 17.0045 16.1928L17.9652 19.8747C17.9839 19.9477 18.0614 20 18.151 20H19.9794H19.9799H19.9805H21.8089H21.8094C21.9147 20 22 19.9288 22 19.8408C22.0003 19.8181 21.9947 19.797 21.9851 19.7778ZM17.7471 17.5445H19.0128L19.318 18.4541H17.9847L17.7471 17.5445ZM19.4079 17.5445H20.6669L21.0401 18.4541H19.7128L19.4079 17.5445ZM20.5368 17.2268H19.3012L18.996 16.3177H20.1639L20.5368 17.2268ZM18.601 16.3177L18.9062 17.2268H17.6645L17.427 16.3177H18.601ZM18.0673 18.772H19.4241L19.7294 19.6812H18.3043L18.0673 18.772ZM20.1244 19.6812L19.8197 18.772H21.1702L21.5428 19.6812H20.1244Z" fill="#FFE1BD"/>
<path d="M8.13609 2.28525H16.8641C16.939 2.28525 17 2.22125 17 2.1425C17 2.06375 16.939 2 16.8641 2H8.13609C8.06101 2 8 2.06375 8 2.1425C8 2.22125 8.06101 2.28525 8.13609 2.28525Z" fill="#FFE1BD"/>
<path d="M8.13609 14.285H16.8641C16.939 14.285 17 14.221 17 14.1425C17 14.0635 16.939 14 16.8641 14H8.13609C8.06101 14 8 14.0635 8 14.1425C8 14.221 8.06101 14.285 8.13609 14.285Z" fill="#FFE1BD"/>
<path d="M16.6704 4.1267C15.4542 4.04256 14.2194 4 13.0001 4C11.7808 4 10.5457 4.04256 9.32902 4.1267C8.74806 4.16902 8.19973 4.67855 8.13192 5.24048C7.95603 6.76093 7.95603 8.23907 8.13192 9.75977C8.19973 10.321 8.7478 10.8307 9.32978 10.873C10.546 10.9572 11.7808 11 13.0001 11C14.2194 11 15.4539 10.9572 16.6709 10.873C17.2519 10.8307 17.8002 10.321 17.8683 9.75903C18.0439 8.23882 18.0439 6.76068 17.8683 5.23974C17.8002 4.67855 17.2521 4.16902 16.6704 4.1267ZM17.5065 9.71918C17.4586 10.1172 17.0553 10.4929 16.6447 10.5227C15.4369 10.6059 14.2104 10.6482 13.0004 10.6482C11.7895 10.6482 10.5633 10.6059 9.35655 10.5227C8.94486 10.4929 8.54183 10.1172 8.49365 9.72016C8.32056 8.22627 8.32056 6.77348 8.49365 5.28033C8.54157 4.88226 8.94511 4.50682 9.35578 4.47705C10.5633 4.3934 11.7895 4.35108 13.0004 4.35108C14.2112 4.35108 15.4369 4.3934 16.6436 4.4768C17.0553 4.50682 17.4586 4.88201 17.5065 5.27959C17.6791 6.77372 17.6791 8.22603 17.5065 9.71918Z" fill="#FFE1BD"/>
<path d="M13.6356 5C13.1759 5 12.7493 5.23466 12.4997 5.6052C12.2502 5.23466 11.823 5 11.3636 5C10.6118 5 10 5.60647 10 6.35236C10 6.60621 10.0713 6.8535 10.2066 7.06769C10.2073 7.06921 10.2081 7.07047 10.2091 7.07199L10.2544 7.13892C10.2555 7.14044 10.2565 7.1417 10.2575 7.14322C10.2687 7.15863 10.2802 7.17353 10.2921 7.18868L12.3839 9.94241C12.4111 9.97853 12.4544 10 12.5003 10C12.5461 10 12.5889 9.97853 12.6161 9.94241L14.7076 7.18894C14.7201 7.17353 14.7316 7.15837 14.743 7.14271C14.744 7.1412 14.7451 7.13993 14.7461 7.13842L14.7909 7.07174C14.7919 7.07047 14.7929 7.06921 14.7934 7.06769C14.9287 6.8535 15 6.60621 15 6.35236C14.999 5.60672 14.3872 5 13.6356 5ZM14.5474 6.91286L14.5051 6.97499C14.4962 6.98737 14.4873 6.99924 14.4779 7.01111C14.4774 7.01212 14.4764 7.01288 14.4759 7.01364L12.4995 9.61556L10.5226 7.01339C10.5221 7.01263 10.5216 7.01187 10.5208 7.01086C10.5117 6.99924 10.5028 6.98762 10.4941 6.9755L10.4516 6.91286C10.3464 6.74489 10.2906 6.5509 10.2906 6.35211C10.2906 5.7656 10.772 5.28846 11.3633 5.28846C11.8029 5.28846 12.2051 5.56151 12.3637 5.96767C12.3856 6.02324 12.4394 6.05986 12.4995 6.05986C12.5596 6.05986 12.6133 6.02299 12.6347 5.96767C12.7939 5.56151 13.1958 5.28846 13.6354 5.28846C14.2268 5.28846 14.7079 5.7656 14.7079 6.35211C14.7081 6.55115 14.6524 6.74489 14.5474 6.91286Z" fill="#FFE1BD"/>
</svg>
