<svg width="36" height="39" viewBox="0 0 36 39" fill="none" xmlns="http://www.w3.org/2000/svg">
<path d="M20.4375 0H25.2638C25.6148 1.74281 26.58 3.94144 28.2741 6.123C29.9316 8.26069 32.1302 9.75 35.0625 9.75V14.625C30.7896 14.625 27.5794 12.6409 25.3125 10.1668V26.8125C25.3125 29.223 24.5977 31.5793 23.2585 33.5835C21.9194 35.5877 20.0159 37.1498 17.789 38.0723C15.562 38.9947 13.1115 39.2361 10.7473 38.7658C8.3832 38.2956 6.21159 37.1348 4.50714 35.4304C2.80269 33.7259 1.64194 31.5543 1.17168 29.1902C0.701428 26.826 0.942781 24.3755 1.86522 22.1485C2.78767 19.9216 4.34977 18.0181 6.35399 16.679C8.35822 15.3398 10.7145 14.625 13.125 14.625V19.5C11.6787 19.5 10.2649 19.9289 9.0624 20.7324C7.85986 21.5359 6.9226 22.6779 6.36914 24.0141C5.81567 25.3503 5.67086 26.8206 5.95301 28.2391C6.23517 29.6576 6.93162 30.9605 7.95429 31.9832C8.97696 33.0059 10.2799 33.7023 11.6984 33.9845C13.1169 34.2666 14.5872 34.1218 15.9234 33.5684C17.2596 33.0149 18.4016 32.0776 19.2051 30.8751C20.0086 29.6726 20.4375 28.2588 20.4375 26.8125V0Z" fill="#2F1B09"/>
</svg>
