<svg width="34" height="23" viewBox="0 0 34 23" fill="none" xmlns="http://www.w3.org/2000/svg">
<path fill-rule="evenodd" clip-rule="evenodd" d="M13.6444 15.7705V6.638L22.4242 11.2205L13.6444 15.7705ZM32.925 5.05687C32.925 5.05687 32.6081 2.816 31.6331 1.82962C30.3981 0.536125 29.012 0.529625 28.3766 0.45325C23.8299 0.125 17.0065 0.125 17.0065 0.125H16.9935C16.9935 0.125 10.1718 0.125 5.62337 0.45325C4.988 0.529625 3.6035 0.5345 2.36687 1.82962C1.39187 2.816 1.075 5.05687 1.075 5.05687C1.075 5.05687 0.75 7.68613 0.75 10.317V12.7821C0.75 15.4114 1.075 18.0422 1.075 18.0422C1.075 18.0422 1.39187 20.2815 2.36687 21.2679C3.60187 22.563 5.22687 22.5207 5.95 22.6572C8.55 22.9059 17 22.9823 17 22.9823C17 22.9823 23.8299 22.9725 28.3766 22.6442C29.012 22.5679 30.3981 22.563 31.6331 21.2679C32.6081 20.2815 32.925 18.0422 32.925 18.0422C32.925 18.0422 33.25 15.4114 33.25 12.7821V10.317C33.25 7.68613 32.925 5.05687 32.925 5.05687Z" fill="#2F1B09"/>
</svg>
