<svg width="40" height="39" viewBox="0 0 40 39" fill="none" xmlns="http://www.w3.org/2000/svg">
<path d="M20.819 0C29.633 0 34.04 0 36.77 2.73C39.5 5.46 39.5 9.867 39.5 18.681V20.319C39.5 29.133 39.5 33.54 36.77 36.27C34.04 39 29.633 39 20.819 39H19.181C10.367 39 5.96 39 3.23 36.27C0.5 33.54 0.5 29.133 0.5 20.32V18.68C0.5 9.866 0.5 5.46 3.23 2.73C5.96 0 10.367 0 19.181 0L20.819 0Z" fill="#946940"/>
<path d="M0.617 10.96C0.5 13.064 0.5 15.6 0.5 18.68V20.318C0.5 22.658 0.5 24.648 0.539 26.402C5.648 28.9 12.512 30.42 20 30.42C27.488 30.42 34.352 28.9 39.461 26.403C39.5 24.648 39.5 22.62 39.5 20.32V18.682C39.5 15.602 39.5 13.066 39.383 10.922H0.617V10.96Z" fill="#2F1B09"/>
<path d="M27.61 23.41C29.659 23.41 31.32 21.749 31.32 19.7C31.32 17.651 29.659 15.99 27.61 15.99C25.561 15.99 23.9 17.651 23.9 19.7C23.9 21.749 25.561 23.41 27.61 23.41Z" stroke="white" stroke-width="4"/>
<path d="M16.88 24.18L8.30005 15.6M16.88 15.6L8.30005 24.18" stroke="white" stroke-width="4"/>
</svg>
