<svg width="51" height="50" viewBox="0 0 51 50" fill="none" xmlns="http://www.w3.org/2000/svg">
<path fill-rule="evenodd" clip-rule="evenodd" d="M0.5 25C0.5 18.3696 3.13392 12.0107 7.82233 7.32233C12.5107 2.63392 18.8696 0 25.5 0C32.1304 0 38.4893 2.63392 43.1777 7.32233C47.8661 12.0107 50.5 18.3696 50.5 25C50.5 31.6304 47.8661 37.9893 43.1777 42.6777C38.4893 47.3661 32.1304 50 25.5 50C18.8696 50 12.5107 47.3661 7.82233 42.6777C3.13392 37.9893 0.5 31.6304 0.5 25ZM14.6633 16.8933C14.9161 16.746 15.2032 16.6679 15.4958 16.6667C15.7883 16.6655 16.076 16.7414 16.33 16.8867L27.1667 23.08V18.3333C27.1668 18.0415 27.2435 17.7547 27.3892 17.5019C27.5349 17.249 27.7445 17.0388 27.9969 16.8923C28.2494 16.7458 28.5358 16.6682 28.8277 16.6672C29.1196 16.6662 29.4066 16.7419 29.66 16.8867L41.3267 23.5533C41.5816 23.6992 41.7934 23.9098 41.9408 24.1638C42.0881 24.4179 42.1657 24.7063 42.1657 25C42.1657 25.2937 42.0881 25.5821 41.9408 25.8362C41.7934 26.0902 41.5816 26.3008 41.3267 26.4467L29.66 33.1133C29.4066 33.2581 29.1196 33.3338 28.8277 33.3328C28.5358 33.3318 28.2494 33.2542 27.9969 33.1077C27.7445 32.9612 27.5349 32.751 27.3892 32.4981C27.2435 32.2453 27.1668 31.9585 27.1667 31.6667V26.92L16.3267 33.1133C16.0732 33.2581 15.7862 33.3338 15.4944 33.3328C15.2025 33.3318 14.916 33.2542 14.6636 33.1077C14.4111 32.9612 14.2016 32.751 14.0559 32.4981C13.9102 32.2453 13.8334 31.9585 13.8333 31.6667V18.3333C13.8336 18.0417 13.9104 17.7552 14.056 17.5025C14.2017 17.2498 14.4111 17.0397 14.6633 16.8933Z" fill="#2F1B09"/>
</svg>
