<svg width="39" height="39" viewBox="0 0 39 39" fill="none" xmlns="http://www.w3.org/2000/svg">
<path fill-rule="evenodd" clip-rule="evenodd" d="M6.5 4.875C5.63805 4.875 4.8114 5.21741 4.2019 5.8269C3.59241 6.4364 3.25 7.26305 3.25 8.125V30.875C3.25 31.737 3.59241 32.5636 4.2019 33.1731C4.8114 33.7826 5.63805 34.125 6.5 34.125H32.5C33.362 34.125 34.1886 33.7826 34.7981 33.1731C35.4076 32.5636 35.75 31.737 35.75 30.875V8.125C35.75 7.26305 35.4076 6.4364 34.7981 5.8269C34.1886 5.21741 33.362 4.875 32.5 4.875H6.5ZM14.0156 14.0238C14.0517 13.7131 14.1599 13.4151 14.3315 13.1537C14.5032 12.8922 14.7335 12.6745 15.0043 12.5179C15.275 12.3613 15.5786 12.2702 15.8908 12.2518C16.203 12.2333 16.5152 12.2881 16.8025 12.4117C17.6215 12.7628 19.3505 13.5525 21.541 14.8167C23.0798 15.6976 24.5665 16.6666 25.9935 17.719C26.2443 17.9056 26.448 18.1483 26.5883 18.4276C26.7286 18.7069 26.8017 19.0152 26.8017 19.3278C26.8017 19.6403 26.7286 19.9486 26.5883 20.2279C26.448 20.5072 26.2443 20.7499 25.9935 20.9365C24.5664 21.9878 23.0798 22.9558 21.541 23.8355C20.0092 24.7289 18.4271 25.533 16.8025 26.2437C16.5152 26.3678 16.203 26.4228 15.8906 26.4045C15.5783 26.3863 15.2746 26.2952 15.0037 26.1385C14.7329 25.9818 14.5025 25.764 14.3309 25.5024C14.1593 25.2407 14.0514 24.9426 14.0156 24.6318C13.8191 22.8707 13.7236 21.0998 13.7296 19.3278C13.7296 16.8074 13.9116 14.9094 14.0156 14.0238Z" fill="#2F1B09"/>
</svg>
