<svg width="39" height="39" viewBox="0 0 39 39" fill="none" xmlns="http://www.w3.org/2000/svg">
<path fill-rule="evenodd" clip-rule="evenodd" d="M12.6491 2.2035C12.0711 2.10155 11.4787 2.11445 10.9057 2.24147C10.3327 2.36849 9.79029 2.60714 9.30952 2.9438C8.82876 3.28045 8.41902 3.70852 8.1037 4.20355C7.78839 4.69857 7.57368 5.25086 7.47184 5.82888L3.52309 28.2328C3.31714 29.3998 3.58322 30.6009 4.2628 31.5718C4.94237 32.5427 5.97978 33.2039 7.14684 33.41L26.3511 36.7965C27.5179 37.002 28.7186 36.7357 29.6891 36.0561C30.6597 35.3766 31.3206 34.3395 31.5267 33.1728L35.4787 10.7673C35.5807 10.1893 35.5678 9.59684 35.4408 9.02383C35.3137 8.45082 35.0751 7.90845 34.7384 7.42768C34.4018 6.94692 33.9737 6.53718 33.4787 6.22187C32.9836 5.90656 32.4314 5.69185 31.8533 5.59L12.6491 2.2035ZM14.7226 9.16988C14.5636 9.13865 14.3999 9.13945 14.2412 9.17223C14.0825 9.20501 13.9319 9.26912 13.7982 9.36081C13.6646 9.4525 13.5506 9.56991 13.4629 9.70619C13.3752 9.84247 13.3155 9.99488 13.2874 10.1545C13.2593 10.3141 13.2634 10.4777 13.2993 10.6358C13.3352 10.7938 13.4022 10.9431 13.4965 11.0749C13.5908 11.2067 13.7104 11.3184 13.8484 11.4034C13.9864 11.4884 14.14 11.5451 14.3001 11.57L27.1018 13.8288C27.4203 13.8848 27.748 13.812 28.0129 13.6264C28.2777 13.4408 28.4579 13.1576 28.514 12.8391C28.57 12.5206 28.4972 12.1929 28.3116 11.9281C28.126 11.6633 27.8428 11.483 27.5243 11.427L14.7226 9.16988ZM12.1827 16.5604C12.239 16.2421 12.4194 15.9592 12.6842 15.7739C12.949 15.5887 13.2766 15.5162 13.5948 15.5724L26.3966 17.8295C26.5567 17.8545 26.7103 17.9111 26.8483 17.9961C26.9862 18.0811 27.1059 18.1928 27.2002 18.3246C27.2945 18.4564 27.3615 18.6057 27.3974 18.7637C27.4333 18.9218 27.4373 19.0854 27.4093 19.245C27.3812 19.4046 27.3215 19.557 27.2338 19.6933C27.1461 19.8296 27.0321 19.947 26.8984 20.0387C26.7648 20.1304 26.6142 20.1945 26.4555 20.2273C26.2968 20.2601 26.1331 20.2609 25.9741 20.2296L13.1707 17.9709C12.8528 17.9146 12.5702 17.7345 12.3849 17.47C12.1997 17.2056 12.127 16.8784 12.1827 16.5604ZM12.4655 21.9716C12.3064 21.9404 12.1428 21.9412 11.9841 21.974C11.8253 22.0068 11.6748 22.0709 11.5411 22.1626C11.4075 22.2542 11.2935 22.3717 11.2058 22.5079C11.118 22.6442 11.0584 22.7966 11.0303 22.9562C11.0022 23.1159 11.0062 23.2795 11.0421 23.4375C11.078 23.5955 11.1451 23.7448 11.2394 23.8766C11.3337 24.0085 11.4533 24.1201 11.5913 24.2051C11.7293 24.2902 11.8828 24.3468 12.043 24.3718L20.0445 25.7839C20.363 25.8399 20.6907 25.7671 20.9555 25.5815C21.2203 25.3959 21.4006 25.1127 21.4566 24.7943C21.5126 24.4758 21.4398 24.1481 21.2542 23.8832C21.0686 23.6184 20.7855 23.4382 20.467 23.3821L12.4655 21.9716Z" fill="#2F1B09"/>
</svg>
