<svg width="22" height="24" viewBox="0 0 22 24" fill="none" xmlns="http://www.w3.org/2000/svg">
<path d="M12.5 0H15.47C15.686 1.0725 16.28 2.4255 17.3225 3.768C18.3425 5.0835 19.6955 6 21.5 6V9C18.8705 9 16.895 7.779 15.5 6.2565V16.5C15.5 17.9834 15.0601 19.4334 14.236 20.6668C13.4119 21.9001 12.2406 22.8614 10.8701 23.4291C9.49968 23.9968 7.99168 24.1453 6.53683 23.8559C5.08197 23.5665 3.7456 22.8522 2.6967 21.8033C1.64781 20.7544 0.933503 19.418 0.644114 17.9632C0.354725 16.5083 0.50325 15.0003 1.07091 13.6299C1.63856 12.2594 2.59986 11.0881 3.83323 10.264C5.0666 9.43987 6.51664 9 8 9V12C7.10999 12 6.23996 12.2639 5.49994 12.7584C4.75992 13.2529 4.18314 13.9557 3.84255 14.7779C3.50195 15.6002 3.41284 16.505 3.58647 17.3779C3.7601 18.2508 4.18869 19.0526 4.81802 19.682C5.44736 20.3113 6.24918 20.7399 7.1221 20.9135C7.99501 21.0872 8.89981 20.9981 9.72208 20.6575C10.5443 20.3169 11.2471 19.7401 11.7416 19.0001C12.2361 18.26 12.5 17.39 12.5 16.5V0Z" fill="url(#paint0_linear_192_744)"/>
<defs>
<linearGradient id="paint0_linear_192_744" x1="0.5" y1="0" x2="21.8335" y2="0.30022" gradientUnits="userSpaceOnUse">
<stop stop-color="#2F1B09"/>
<stop offset="0.443998" stop-color="#FFC581"/>
<stop offset="1" stop-color="#754522"/>
</linearGradient>
</defs>
</svg>
